<svg xmlns="http://www.w3.org/2000/svg" xmlns:xlink="http://www.w3.org/1999/xlink" version="1.1" x="0px" y="0px" viewBox="0 0 64 64" enable-background="new 0 0 64 64" xml:space="preserve"><path d="M61.078,52.731L49.208,40.875l-1.123-1.124c-1.267-1.28-3.343-1.28-4.61,0l-0.491,0.491l-2.925-2.925l-0.001-0.001  c7.05-8.454,6.611-21.084-1.322-29.016c-8.399-8.399-22.066-8.399-30.464,0c-8.399,8.399-8.399,22.065,0,30.464  c0.627,0.627,1.284,1.206,1.965,1.739c0.041,0.032,0.081,0.064,0.122,0.096c7.932,6.118,19.184,5.947,26.93-0.513l0,0l2.925,2.925  l-0.25,0.251l-0.185,0.184c-1.28,1.267-1.28,3.343,0,4.61l1.124,1.123L52.761,61.05c0.279,0.277,0.597,0.494,0.935,0.65  c0.097,0.045,0.196,0.083,0.296,0.118c0.049,0.018,0.1,0.033,0.15,0.048C54.445,61.955,54.758,62,55.071,62  c0.835,0,1.671-0.317,2.311-0.95l3.696-3.696C62.345,56.074,62.345,54.011,61.078,52.731z M11.991,35.044  c-6.348-6.348-6.348-16.677,0-23.025s16.677-6.348,23.025,0c6.022,6.022,6.33,15.626,0.927,22.016l-1.936,1.936  C27.617,41.375,18.013,41.066,11.991,35.044z"></path></svg>